# xmcd
#
# Track frame offsets: 
#        150
#        16155
#        32594
#        48872
#        61879
#        79873
#        96472
#        112348
#        125573
#        142868
#        163893
#
# Disc length: 2346 seconds
#
# Revision: 1
# Processed by: cddbd v1.5.2PL0 Copyright (c) Steve Scherf et al.
# Submitted via: ExactAudioCopy v1.1
#
DISCID=9109280b
DTITLE=ZAZ - ZAZ
DYEAR=2010
DGENRE=Chanson
TTITLE0=Les Passants
TTITLE1=Je Veux
TTITLE2=Le Long De La Route
TTITLE3=La Fée
TTITLE4=Trop Sensible
TTITLE5=Prends Garde A Ta Langue
TTITLE6=Ni Oui Ni Non
TTITLE7=Port Coton
TTITLE8=J'Aime A Nouveau
TTITLE9=Dans Ma Rue
TTITLE10=Eblouie Par La Nuit
EXTD=
EXTT0=
EXTT1=
EXTT2=
EXTT3=
EXTT4=
EXTT5=
EXTT6=
EXTT7=
EXTT8=
EXTT9=
EXTT10=
PLAYORDER=
